# xmcd
#
# Track frame offsets:
#   150
#   20075
#   40752
#   60092
#   81665
#   99212
#   112922
#   128245
#   141632
#   155527
#   178312
#   190667
#   207807
#   224115
#
# Disc length: 3213 seconds
#
# Revision: 2
# Processed by: cddbd v1.5PL3 Copyright (c) Steve Scherf et al.
# Submitted via: Media_Universe 3.0
#
DISCID=cb0c8b0e
DTITLE=Renaud - Boucan d'enfer
DYEAR=2002
DGENRE=Chanson
TTITLE0=Docteur Renaud, Mister Renard
TTITLE1=Petit pédé
TTITLE2=Je vis caché
TTITLE3=Coeur perdu
TTITLE4=Manhattan-Kaboul
TTITLE5=Elle a vu le loup
TTITLE6=Tout arrêter...
TTITLE7=Baltique
TTITLE8=L'entarté
TTITLE9=Boucan d'enfer
TTITLE10=Mon nain de jardin
TTITLE11=Mal barrés
TTITLE12=Corsic'armes
TTITLE13=Mon bistrot préféré
EXTD=
EXTT0=
EXTT1=
EXTT2=
EXTT3=
EXTT4=
EXTT5=
EXTT6=
EXTT7=
EXTT8=
EXTT9=
EXTT10=
EXTT11=
EXTT12=
EXTT13=
PLAYORDER=
